<?xml version="1.0" encoding="utf-8"?>
<!-- Generator: Adobe Illustrator 14.0.0, SVG Export Plug-In . SVG Version: 6.00 Build 43363)  -->
<!DOCTYPE svg PUBLIC "-//W3C//DTD SVG 1.1//EN" "http://www.w3.org/Graphics/SVG/1.1/DTD/svg11.dtd">
<svg version="1.1" id="Layer_1" xmlns="http://www.w3.org/2000/svg" xmlns:xlink="http://www.w3.org/1999/xlink" x="0px" y="0px"
	 width="599.05px" height="139.796px" viewBox="0 0 599.05 139.796" enable-background="new 0 0 599.05 139.796"
	 xml:space="preserve">
<g>
	<polygon fill="#FFFFFF" stroke="#FFFFFF" stroke-width="0.18" points="11.947,106.479 0,94.532 0,27.343 12.045,16.27 	"/>
	<polygon fill="#FFFFFF" stroke="#FFFFFF" stroke-width="0.18" points="66.777,0 77.765,11.482 77.765,78.669 66.567,89.868 	"/>
	<polygon fill="#FFFFFF" stroke="#FFFFFF" stroke-width="0.18" points="83.378,16.271 94.625,28.012 94.625,95.2 83.427,106.399 	
		"/>
	<polygon fill="#FFFFFF" stroke="#FFFFFF" stroke-width="0.18" points="28.665,122.927 17.494,111.347 17.496,44.161 28.693,32.963 
			"/>
	<polygon fill="#FFFFFF" stroke="#FFFFFF" stroke-width="0.18" points="45.883,139.796 34.761,128.187 34.759,60.997 45.956,49.8 	
		"/>
	<g>
		<path fill="#FFFFFF" stroke="#FFFFFF" stroke-width="0.18" d="M66.919,123.218l-16.736-16.734l3.469-3.469l6.395,6.396l6.49-6.49
			l-6.395-6.396l3.468-3.467l16.735,16.734l-3.469,3.469l-7.477-7.477l-6.49,6.49l7.477,7.477L66.919,123.218z"/>
	</g>
</g>
<g>
	<path fill="#FFFFFF" d="M137.683,85.896l8.994-42.95h5.713l-3.721,17.842h22.266l3.721-17.842h5.742l-8.965,42.95h-5.742
		l4.219-20.244h-22.236l-4.248,20.244H137.683z"/>
	<path fill="#FFFFFF" d="M195.251,85.896l3.457-16.611l-13.213-26.338h6.152l6.328,12.539c1.387,2.735,2.734,5.665,4.043,8.79
		c1.445-2.656,3.418-5.557,5.918-8.702l10.078-12.627h6.855l-20.508,26.778l-3.369,16.172H195.251z"/>
	<path fill="#FFFFFF" d="M221.091,85.896l8.994-42.95h17.93c3.105,0,5.435,0.356,6.987,1.069c1.553,0.713,2.837,1.934,3.853,3.662
		s1.523,3.667,1.523,5.815c0,1.777-0.361,3.584-1.084,5.42c-0.723,1.836-1.636,3.35-2.739,4.542s-2.222,2.09-3.354,2.695
		s-2.344,1.055-3.633,1.348c-2.754,0.645-5.537,0.967-8.35,0.967h-10.752l-3.633,17.432H221.091z M231.492,63.601h9.463
		c3.672,0,6.367-0.396,8.086-1.188s3.096-1.996,4.131-3.618c1.035-1.621,1.553-3.34,1.553-5.156c0-1.406-0.273-2.553-0.82-3.442
		c-0.547-0.889-1.318-1.542-2.314-1.963c-0.996-0.42-2.91-0.63-5.742-0.63h-11.016L231.492,63.601z"/>
	<path fill="#FFFFFF" d="M261.228,85.896l8.994-42.95h30.996l-1.025,4.893h-25.254l-2.812,13.36h24.609l-1.025,4.893h-24.609
		l-3.105,14.941h27.041l-1.025,4.863H261.228z"/>
	<path fill="#FFFFFF" d="M301.365,85.896l8.994-42.95h18.018c3.555,0,6.25,0.298,8.086,0.894c1.836,0.596,3.276,1.714,4.321,3.354
		s1.567,3.711,1.567,6.211c0,3.497-1.143,6.397-3.428,8.702s-5.977,3.799-11.074,4.482c1.562,1.152,2.744,2.285,3.545,3.398
		c1.797,2.52,3.242,5.127,4.336,7.822l3.281,8.086h-6.416l-3.076-7.998c-1.113-2.891-2.383-5.391-3.809-7.5
		c-0.977-1.465-1.973-2.428-2.988-2.887c-1.016-0.458-2.666-0.688-4.951-0.688h-6.68l-3.984,19.072H301.365z M312.058,62.165h7.939
		c3.672,0,6.064-0.049,7.178-0.146c2.168-0.215,3.945-0.703,5.332-1.465c1.387-0.762,2.461-1.787,3.223-3.076
		s1.143-2.676,1.143-4.16c0-1.25-0.283-2.339-0.85-3.267c-0.566-0.927-1.309-1.557-2.227-1.89c-0.918-0.332-2.48-0.498-4.688-0.498
		h-14.004L312.058,62.165z"/>
	<path fill="#FFFFFF" d="M378.064,70.778l5.684,0.791c-1.797,4.961-4.414,8.711-7.852,11.25s-7.295,3.809-11.572,3.809
		c-5.215,0-9.351-1.592-12.407-4.775s-4.585-7.744-4.585-13.682c0-7.735,2.324-14.131,6.973-19.19
		c4.141-4.512,9.287-6.768,15.439-6.768c4.551,0,8.237,1.221,11.06,3.662c2.822,2.442,4.458,5.723,4.907,9.844l-5.361,0.498
		c-0.566-3.105-1.733-5.424-3.501-6.958c-1.768-1.533-4.048-2.3-6.841-2.3c-5.254,0-9.502,2.334-12.744,7.002
		c-2.812,4.024-4.219,8.799-4.219,14.327c0,4.414,1.084,7.783,3.252,10.107s4.99,3.486,8.467,3.486c2.969,0,5.654-0.967,8.057-2.9
		S376.97,74.313,378.064,70.778z"/>
	<path fill="#FFFFFF" d="M390.691,67.907c0-7.657,2.212-13.853,6.636-18.589c4.424-4.736,9.79-7.104,16.099-7.104
		c5.352,0,9.712,1.743,13.081,5.229s5.054,8.159,5.054,14.019c0,4.18-0.85,8.057-2.549,11.631c-1.27,2.676-2.871,4.984-4.805,6.928
		c-1.934,1.944-4.004,3.443-6.211,4.498c-2.93,1.406-6.035,2.109-9.316,2.109c-3.438,0-6.567-0.82-9.39-2.461
		s-4.961-3.931-6.416-6.871C391.418,74.356,390.691,71.228,390.691,67.907z M396.345,68.2c0,2.52,0.522,4.834,1.567,6.943
		s2.603,3.76,4.673,4.951s4.248,1.787,6.533,1.787c2.207,0,4.307-0.523,6.299-1.568c1.992-1.044,3.774-2.5,5.347-4.365
		c1.572-1.864,2.812-4.16,3.721-6.885s1.362-5.404,1.362-8.042c0-4.277-1.196-7.686-3.589-10.225
		c-2.393-2.539-5.347-3.809-8.862-3.809c-4.492,0-8.457,1.919-11.895,5.757S396.345,61.735,396.345,68.2z"/>
	<path fill="#FFFFFF" d="M434.285,85.896l8.965-42.95h5.742l-7.939,38.086h22.295l-1.025,4.863H434.285z"/>
	<path fill="#FFFFFF" d="M470.73,67.907c0-7.657,2.212-13.853,6.636-18.589c4.424-4.736,9.79-7.104,16.099-7.104
		c5.352,0,9.712,1.743,13.081,5.229s5.054,8.159,5.054,14.019c0,4.18-0.85,8.057-2.549,11.631c-1.27,2.676-2.871,4.984-4.805,6.928
		c-1.934,1.944-4.004,3.443-6.211,4.498c-2.93,1.406-6.035,2.109-9.316,2.109c-3.438,0-6.567-0.82-9.39-2.461
		s-4.961-3.931-6.416-6.871C471.458,74.356,470.73,71.228,470.73,67.907z M476.384,68.2c0,2.52,0.522,4.834,1.567,6.943
		s2.603,3.76,4.673,4.951s4.248,1.787,6.533,1.787c2.207,0,4.307-0.523,6.299-1.568c1.992-1.044,3.774-2.5,5.347-4.365
		c1.572-1.864,2.812-4.16,3.721-6.885s1.362-5.404,1.362-8.042c0-4.277-1.196-7.686-3.589-10.225
		c-2.393-2.539-5.347-3.809-8.862-3.809c-4.492,0-8.457,1.919-11.895,5.757S476.384,61.735,476.384,68.2z"/>
	<path fill="#FFFFFF" d="M523.816,42.946h5.742l-5.508,26.397c-0.449,2.188-0.674,3.809-0.674,4.863c0,2.305,0.908,4.16,2.725,5.566
		s4.102,2.109,6.855,2.109c2.188,0,4.224-0.503,6.108-1.51c1.885-1.006,3.374-2.484,4.468-4.438s2.08-5.068,2.959-9.346
		l4.951-23.643h5.742l-5.244,25.196c-0.898,4.297-2.08,7.7-3.545,10.209c-1.465,2.51-3.496,4.522-6.094,6.035
		c-2.598,1.514-5.615,2.271-9.053,2.271c-3.242,0-6.05-0.538-8.423-1.611c-2.373-1.074-4.15-2.559-5.332-4.453
		s-1.772-4.043-1.772-6.445c0-1.504,0.4-4.092,1.201-7.764L523.816,42.946z"/>
	<path fill="#FFFFFF" d="M558.064,85.896l8.994-42.95h18.018c3.555,0,6.25,0.298,8.086,0.894c1.836,0.596,3.276,1.714,4.321,3.354
		s1.567,3.711,1.567,6.211c0,3.497-1.143,6.397-3.428,8.702s-5.977,3.799-11.074,4.482c1.562,1.152,2.744,2.285,3.545,3.398
		c1.797,2.52,3.242,5.127,4.336,7.822l3.281,8.086h-6.416l-3.076-7.998c-1.113-2.891-2.383-5.391-3.809-7.5
		c-0.977-1.465-1.973-2.428-2.988-2.887c-1.016-0.458-2.666-0.688-4.951-0.688h-6.68l-3.984,19.072H558.064z M568.757,62.165h7.939
		c3.672,0,6.064-0.049,7.178-0.146c2.168-0.215,3.945-0.703,5.332-1.465c1.387-0.762,2.461-1.787,3.223-3.076
		s1.143-2.676,1.143-4.16c0-1.25-0.283-2.339-0.85-3.267c-0.566-0.927-1.309-1.557-2.227-1.89c-0.918-0.332-2.48-0.498-4.688-0.498
		h-14.004L568.757,62.165z"/>
</g>
</svg>
